<?xml version="1.0" encoding="UTF-8" standalone="no"?>
<svg width="171px" height="46px" viewBox="0 0 171 46" version="1.1" xmlns="http://www.w3.org/2000/svg" xmlns:xlink="http://www.w3.org/1999/xlink">
    <!-- Generator: Sketch 3.6.1 (26313) - http://www.bohemiancoding.com/sketch -->
    <title>Group</title>
    <desc>Created with Sketch.</desc>
    <defs>
        <linearGradient x1="100%" y1="63.3603513%" x2="0%" y2="63.3603513%" id="linearGradient-1">
            <stop stop-color="#52DCFC" offset="0%"></stop>
            <stop stop-color="#29B6F6" offset="100%"></stop>
        </linearGradient>
    </defs>
    <g id="Page-1" stroke="none" stroke-width="1" fill="none" fill-rule="evenodd">
        <g id="Group">
            <path d="M24.24,38.472 C25.0933376,37.9173306 25.6053325,37.64 25.776,37.64 C26.0746682,37.64 26.224,37.9706634 26.224,38.632 C26.224,39.2933366 26.1173344,40.1786611 25.904,41.288 C25.6479987,42.6106733 24.3253453,43.6239965 21.936,44.328 C19.5466547,45.0320035 17.3706765,45.384 15.408,45.384 C5.76528512,45.384 0.944,40.9680442 0.944,32.136 C0.944,25.9493024 2.39465216,20.9040195 5.296,17 C8.19734784,13.0959805 12.6133037,11.144 18.544,11.144 C22.1706848,11.144 24.8693245,12.0506576 26.64,13.864 C28.4106755,15.6773424 29.296,17.6293229 29.296,19.72 C29.296,21.8106771 28.8160048,23.6453254 27.856,25.224 C26.8959952,26.8026746 25.5626752,28.0186624 23.856,28.872 C20.5706502,30.5360083 16.624023,31.368 12.016,31.368 C9.92532288,31.368 8.09067456,31.2186682 6.512,30.92 L6.512,31.56 C6.512,34.9306835 7.311992,37.3093264 8.912,38.696 C10.512008,40.0826736 12.8266515,40.776 15.856,40.776 C18.8853485,40.776 21.6799872,40.0080077 24.24,38.472 L24.24,38.472 Z M17.968,15.752 C11.567968,15.752 7.85600512,19.4212966 6.832,26.76 L11.376,26.76 C15.0026848,26.76 17.882656,26.2906714 20.016,25.352 C20.9546714,24.9253312 21.8079962,24.2640045 22.576,23.368 C23.3440038,22.4719955 23.728,21.4053395 23.728,20.168 C23.728,18.9306605 23.2053386,17.8853376 22.16,17.032 C21.1146614,16.1786624 19.7173421,15.752 17.968,15.752 L17.968,15.752 Z M46.96,45.128 L44.72,45.128 C43.2266592,45.128 42.3946675,44.7866701 42.224,44.104 C37.4453094,23.2825626 35.056,12.7440013 35.056,12.488 C35.1413338,11.762663 36.1013242,11.4 37.936,11.4 L38.448,11.4 C39.9413408,11.4 40.7733325,11.7413299 40.944,12.424 L46.768,38.344 L58.096,12.424 C58.3946682,11.7413299 59.3546586,11.4 60.976,11.4 C62.5973414,11.4 63.408,11.7199968 63.408,12.36 C63.408,12.6586682 63.3226675,12.9999981 63.152,13.384 L49.584,44.104 C49.2853318,44.7866701 48.4106739,45.128 46.96,45.128 L46.96,45.128 Z M89.776,38.472 C90.6293376,37.9173306 91.1413325,37.64 91.312,37.64 C91.6106682,37.64 91.76,37.9706634 91.76,38.632 C91.76,39.2933366 91.6533344,40.1786611 91.44,41.288 C91.1839987,42.6106733 89.8613453,43.6239965 87.472,44.328 C85.0826547,45.0320035 82.9066765,45.384 80.944,45.384 C71.3012851,45.384 66.48,40.9680442 66.48,32.136 C66.48,25.9493024 67.9306522,20.9040195 70.832,17 C73.7333478,13.0959805 78.1493037,11.144 84.08,11.144 C87.7066848,11.144 90.4053245,12.0506576 92.176,13.864 C93.9466755,15.6773424 94.832,17.6293229 94.832,19.72 C94.832,21.8106771 94.3520048,23.6453254 93.392,25.224 C92.4319952,26.8026746 91.0986752,28.0186624 89.392,28.872 C86.1066502,30.5360083 82.160023,31.368 77.552,31.368 C75.4613229,31.368 73.6266746,31.2186682 72.048,30.92 L72.048,31.56 C72.048,34.9306835 72.847992,37.3093264 74.448,38.696 C76.048008,40.0826736 78.3626515,40.776 81.392,40.776 C84.4213485,40.776 87.2159872,40.0080077 89.776,38.472 L89.776,38.472 Z M83.504,15.752 C77.103968,15.752 73.3920051,19.4212966 72.368,26.76 L76.912,26.76 C80.5386848,26.76 83.418656,26.2906714 85.552,25.352 C86.4906714,24.9253312 87.3439962,24.2640045 88.112,23.368 C88.8800038,22.4719955 89.264,21.4053395 89.264,20.168 C89.264,18.9306605 88.7413386,17.8853376 87.696,17.032 C86.6506614,16.1786624 85.2533421,15.752 83.504,15.752 L83.504,15.752 Z M104.816,15.752 L104.752,13.576 C104.752,12.5946618 105.946655,12.104 108.336,12.104 C109.445339,12.104 110,13.703984 110,16.904 C110,17.0746675 109.978667,17.2879987 109.936,17.544 C110.960005,15.5386566 112.229326,13.9706723 113.744,12.84 C115.258674,11.7093277 116.826659,11.144 118.448,11.144 C120.581344,11.144 121.648,11.9546586 121.648,13.576 C121.648,14.3440038 121.434669,15.1333293 121.008,15.944 C120.581331,16.7546707 120.176002,17.16 119.792,17.16 C119.706666,17.16 119.429336,17.0426678 118.96,16.808 C118.490664,16.5733322 117.936003,16.456 117.296,16.456 C115.845326,16.456 114.384007,17.2239923 112.912,18.76 C111.439993,20.2960077 110.192005,22.8986483 109.168,26.568 L107.376,43.72 C107.247999,44.6586714 106.352008,45.128 104.688,45.128 L104.432,45.128 C102.810659,45.128 102,44.6800045 102,43.784 C103.877343,27.1439168 104.816,17.8000102 104.816,15.752 L104.816,15.752 Z M152.688,40.776 L154.416,40.456 C154.672001,40.456 154.8,40.6906643 154.8,41.16 C154.8,41.6293357 154.725334,42.2799958 154.576,43.112 C154.426666,43.9440042 153.936004,44.530665 153.104,44.872 C152.271996,45.213335 151.472004,45.384 150.704,45.384 C146.863981,45.384 144.944,43.2933542 144.944,39.112 L144.944,38.472 C141.871985,43.080023 138.074689,45.384 133.552,45.384 C127.919972,45.384 125.104,42.6106944 125.104,37.064 L127.536,12.808 C127.664001,11.8693286 128.559992,11.4 130.224,11.4 L130.48,11.4 C132.101341,11.4 132.912,11.8693286 132.912,12.808 C131.375992,27.5280736 130.608,35.1866637 130.608,35.784 C130.608,39.0693498 132.229317,40.712 135.472,40.712 C137.264009,40.712 139.109324,39.8800083 141.008,38.216 C142.906676,36.5519917 144.47466,33.757353 145.712,29.832 L147.504,12.808 C147.632001,11.8693286 148.527992,11.4 150.192,11.4 L150.448,11.4 C152.069341,11.4 152.88,11.8693286 152.88,12.808 C151.215992,28.4240781 150.384,36.7119952 150.384,37.672 C150.384,38.6320048 150.447999,39.3039981 150.576,39.688 C150.704001,40.0720019 150.895999,40.3279994 151.152,40.456 C151.621336,40.6693344 152.133331,40.776 152.688,40.776 L152.688,40.776 Z M168.816,40.776 L170.544,40.456 C170.800001,40.456 170.928,40.6906643 170.928,41.16 C170.928,41.6293357 170.853334,42.2799958 170.704,43.112 C170.554666,43.9440042 170.064004,44.530665 169.232,44.872 C168.399996,45.213335 167.600004,45.384 166.832,45.384 C163.034648,45.384 161.136,43.3573536 161.136,39.304 C161.136,37.7679923 161.562662,32.9680403 162.416,24.904 C163.269338,16.8399597 163.717333,12.808 163.76,12.808 C163.888001,11.8693286 164.783992,11.4 166.448,11.4 L166.704,11.4 C168.325341,11.4 169.136,11.8693286 169.136,12.808 C167.429325,28.4240781 166.576,36.7546614 166.576,37.8 C166.576,38.8453386 166.703999,39.5706646 166.96,39.976 C167.216001,40.3813354 167.471999,40.6159997 167.728,40.68 C167.984001,40.7440003 168.346664,40.776 168.816,40.776 L168.816,40.776 Z" id="everui" fill="url(#linearGradient-1)"></path>
            <circle id="Oval-1" fill="#FFD54F" cx="167" cy="4" r="4"></circle>
        </g>
    </g>
</svg>